<svg width="256" height="50" viewBox="0 0 256 50" fill="none" xmlns="http://www.w3.org/2000/svg">
<path opacity="0.5" d="M231.435 41.6H231.392L214.693 64.0709L181.368 75.2851H181.32L164.626 97.7454L131.302 108.954H131.254L114.518 131.441L92.0947 138.979H92.7665L114.697 131.584H114.74L131.439 109.129L164.764 97.9144H164.806L181.527 75.4489L214.852 64.2346H214.899L231.62 41.7638L264.944 30.5495H264.992L275.979 15.7591V15.3048L264.786 30.3857L231.435 41.6ZM227.261 38.7899H227.219L210.519 61.2448L177.195 72.4591H177.147L160.453 94.9141L127.102 106.128H127.059L110.365 128.583L79.5953 138.931H80.2671L110.54 128.747H110.587L127.281 106.287L160.606 95.0779H160.649L177.348 72.6176L210.673 61.4086H210.715L227.414 38.9536L260.739 27.7393H260.787L275.947 7.34972V6.88489L260.607 27.5914L227.261 38.7899ZM243.913 -17.308L227.219 5.1206L193.868 16.3349H193.825L177.136 38.8057L143.812 50.02H143.764L127.038 72.4908L93.7133 83.7051H93.671L76.9505 106.176L43.5992 117.39H43.5569L27.5134 138.979H27.852L43.7791 117.554L77.1303 106.34H77.1726L93.8667 83.8847L127.192 72.6704H127.234L143.933 50.2154L177.258 39.0012H177.306L194.063 16.4986L227.388 5.28963H227.43L244.124 -17.1706L275.995 -27.8725V-28.1208L243.96 -17.3502L243.913 -17.308ZM248.086 -14.5031L231.392 7.93077L198.041 19.1398H197.999L181.299 41.5947L147.975 52.809H147.927L131.233 75.264L97.908 86.4783H97.8604L81.1663 108.933L47.7728 120.195H47.7304L33.7869 138.979H34.1255L47.9632 120.359L81.3144 109.15H81.3567L98.0509 86.6896L131.402 75.4806H131.444L148.144 53.0256L181.469 41.8113H181.516L198.21 19.3564L231.562 8.14207H231.604L248.303 -14.3129L275.984 -23.6203V-23.9108L248.134 -14.5453L248.086 -14.5031ZM268.959 66.9022L252.249 89.3307L218.925 100.545H218.877L202.183 123L168.858 134.214H168.81L165.293 138.968H165.631L169.033 134.383L202.352 123.201H202.394L219.094 100.746L252.419 89.5314H252.466L269.176 67.0289L275.989 64.7364V64.5093L268.996 66.8599L268.959 66.9022ZM273.133 69.7123L256.433 92.1409L223.109 103.355H223.066L206.346 125.842L173.021 137.051H172.973L171.545 138.979H171.847L173.169 137.204L206.494 125.99H206.536L223.236 103.535L256.56 92.3205H256.608L273.355 69.8497L276 68.9623V68.7351L273.18 69.6859L273.133 69.7123ZM239.782 47.2362H239.739L223.045 69.6965L189.694 80.9055H189.652L172.952 103.36L139.627 114.575H139.58L122.865 137.051L117.141 138.979H117.813L123.044 137.22H123.087L139.786 114.749L173.111 103.535H173.159L189.853 81.0798L223.177 69.8655H223.225L239.919 47.4105L273.27 36.1963H273.313L275.958 32.6466V32.1976L273.096 36.0484L239.782 47.2362ZM235.608 44.4313H235.566L218.866 66.8863L185.542 78.1006H185.499L168.779 100.561L135.454 111.775H135.406L118.712 134.23L104.636 138.984H105.314L118.892 134.415H118.934L135.634 111.96L168.959 100.746H169.001L185.7 78.2855L219.025 67.0765H219.073L235.767 44.6162L269.118 33.4072H269.16L275.973 24.2425V23.7935L268.938 33.254L235.608 44.4313ZM264.786 -3.29935L248.086 19.1398L214.762 30.3541H214.714L197.999 52.8407L164.648 64.0392H164.605L147.906 86.4941L114.581 97.7084H114.539L97.8393 120.163L64.5145 131.378H64.4669L58.8652 138.916H59.1772L64.6732 131.52L97.998 120.306H98.0403L114.719 97.9039L148.043 86.6896H148.091L164.785 64.2346L198.11 53.0203H198.152L214.852 30.5601L248.176 19.3511H248.224L265.008 -3.15145L275.995 -6.84904V-7.07619L264.828 -3.32048L264.786 -3.29935ZM273.133 2.31571L256.433 24.7707L223.109 35.985H223.066L206.367 58.4399L173.042 69.6542H172.995L156.258 92.1409L122.933 103.355H122.891L106.165 125.842L72.8404 137.051H72.7981L71.3434 138.979H71.682L72.9991 137.204L106.324 125.99H106.371L123.066 103.535L156.417 92.3205H156.459L173.18 69.8497L206.504 58.6354H206.547L223.246 36.1804L256.571 24.9661H256.619L273.355 2.46362L276 1.57619V1.35434L273.18 2.29987L273.133 2.31571ZM268.959 -0.494461L252.249 21.9658L218.925 33.1748H218.877L202.183 55.6298L168.858 66.8441H168.81L152.116 89.299L118.792 100.513H118.749L102.05 122.968L68.7251 134.183H68.6775L65.1598 138.937H65.4984L68.9049 134.352L102.23 123.143H102.277L118.971 100.688L152.296 89.4733H152.344L169.038 67.0184L202.389 55.8041H202.431L219.131 33.3491L252.456 22.1348H252.503L269.176 -0.341278L275.989 -2.63379V-2.86092L268.996 -0.505028L268.959 -0.494461ZM252.249 -11.7193L235.566 10.7357L202.241 21.9499H202.199L185.499 44.4049L152.175 55.6192H152.132L135.433 78.0795L102.108 89.2938H102.06L85.2975 111.791L51.9727 123H51.9304L40.0393 138.979H40.3725L52.1261 123.169L85.4774 111.955H85.5197L102.219 89.4998L135.544 78.2855H135.591L152.286 55.8305L185.61 44.6162H185.658L202.352 22.1612L235.746 10.8994H235.788L252.487 -11.5556L275.995 -19.479V-19.7061L252.308 -11.7352L252.249 -11.7193ZM239.771 -20.171H239.729L223.045 2.31571L189.694 13.53H189.652L172.952 35.9903L139.627 47.1992H139.58L122.865 69.6859L89.5134 80.8949H89.471L72.7769 103.35L39.4257 114.58H39.3834L22.6787 137.051L16.9553 138.979H17.6271L22.8585 137.22H22.9061L39.6056 114.749L72.9303 103.535H72.9779L89.6721 81.0798L123.044 69.8497H123.087L139.786 47.3947L173.111 36.1804H173.159L189.853 13.7254L223.177 2.51115H223.225L239.919 -19.9438L273.313 -31.2056H273.355L276 -34.7501V-35.2043L273.133 -31.3694L239.771 -20.171ZM256.423 -8.93026L239.739 13.5406L206.415 24.7548H206.367L189.673 47.2098L156.3 58.4399H156.258L139.58 80.9108L106.255 92.125H106.207L89.5134 114.58L56.1886 125.794H56.141L46.3604 138.947H46.699L56.3632 125.942L89.6509 114.749H89.6932L106.393 92.2888L139.717 81.0798H139.765L156.507 58.6037L189.832 47.3947H189.874L206.568 24.9503L239.919 13.736H239.961L256.661 -8.71898L275.995 -15.2215V-15.4486L256.481 -8.93026H256.423ZM264.786 64.0709L248.086 86.5258L214.762 97.7401H214.714L198.02 120.195L164.669 131.409H164.626L159.019 138.947H159.358L164.849 131.552L198.173 120.338H198.216L214.915 97.8828L248.24 86.6684H248.287L264.982 64.2135L275.968 60.5159V60.2887L264.828 64.0392L264.786 64.0709ZM268.959 -34.1796L235.635 -22.9653H235.592L218.866 -0.494461L185.542 10.7198H185.499L168.779 33.1906L135.454 44.4049H135.406L118.712 66.8599L85.3874 78.0742H85.3451L68.6457 100.529L35.3209 111.743H35.2733L18.5104 134.246L4.43998 139H5.11177L18.6903 134.431H18.7326L35.432 111.976L68.7568 100.762H68.8044L85.4985 78.3013L118.823 67.0923H118.866L135.565 44.6321L168.89 33.4231H168.932L185.632 10.9628L218.956 -0.246193H219.004L235.698 -22.7012L269.139 -34.0105H269.182L275.995 -43.1911V-43.6401L268.959 -34.1796ZM260.607 -6.10424L243.913 16.3507L210.567 27.5914H210.519L193.825 50.0517L160.474 61.2448H160.432L143.732 83.7051L110.407 94.9141H110.365L93.6446 117.39L60.3198 128.604H60.2722L52.5599 138.979H52.8984L60.4785 128.784L93.8033 117.57H93.8456L110.545 95.1148L143.87 83.9005H143.917L160.654 61.398L194.005 50.1837H194.047L210.741 27.7288L244.093 16.4986H244.135L260.834 -5.95634L275.995 -11.0537V-11.2809L260.655 -6.12009L260.607 -6.10424ZM252.249 123.016L240.385 138.979H240.723L252.477 123.169L275.984 115.246V115.024L252.297 122.984L252.249 123.016ZM256.423 125.826L246.648 138.979H246.981L256.65 125.974L275.984 119.471V119.25L256.481 125.81L256.423 125.826ZM243.902 117.374L227.864 138.952H228.197L244.124 117.528L275.995 106.826V106.599L243.96 117.39L243.902 117.374ZM260.596 128.604L252.905 138.952H253.244L260.824 128.758L275.984 123.66V123.433L260.644 128.589L260.596 128.604ZM239.771 114.554H239.729L223.035 137.009L217.338 138.979H218.009L223.236 137.22H223.283L239.961 114.749L273.313 103.535H273.355L276 99.9851V99.5361L273.138 103.382L239.771 114.554ZM273.122 137.024L271.689 138.952H272.027L273.344 137.178L275.989 136.29V136.063L273.17 137.009L273.122 137.024ZM268.949 134.22L265.431 138.974H265.764L269.171 134.389L275.984 132.101V131.874L268.991 134.225L268.949 134.22ZM260.607 61.2607L243.913 83.7209L210.588 94.9299H210.54L193.825 117.39L160.474 128.615H160.432L152.741 138.963H153.074L160.654 128.768L194.005 117.554H194.047L210.741 95.099L244.093 83.8847H244.135L260.834 61.398L275.995 56.3006V56.1157L260.655 61.2712L260.607 61.2607ZM264.786 131.441L259.179 138.979H259.517L265.008 131.584L275.995 127.886V127.659L264.828 131.415L264.786 131.441ZM235.608 111.775H235.566L218.866 134.23L204.796 138.984H205.468L219.046 134.415H219.094L235.788 111.96L269.139 100.746H269.182L275.995 91.581V91.1267L268.959 100.593L235.608 111.775ZM248.086 52.8407L231.392 75.2957L198.041 86.51H197.999L181.299 108.965L147.975 120.179H147.927L133.978 138.947H134.29L148.133 120.327L181.458 109.118H181.506L198.2 86.6579L231.551 75.4489H231.593L248.293 52.9939L275.973 43.6865V43.4383L248.113 52.8037L248.086 52.8407ZM256.433 58.4558L239.739 80.9108L206.415 92.125H206.367L189.673 114.58L156.322 125.794H156.279L146.456 138.979H146.795L156.507 125.974L189.832 114.749H189.874L206.568 92.2888L239.919 81.0798H239.961L256.661 58.6195L275.995 52.1223V51.8899L256.481 58.4399L256.433 58.4558ZM252.249 55.6456L235.555 78.1059L202.23 89.3202H202.188L185.478 111.791L152.153 123H152.111L140.215 138.979H140.553L152.307 123.169L185.632 111.955H185.679L202.373 89.4998L235.724 78.2855H235.767L252.466 55.8305L275.973 47.9071V47.6641L252.286 55.6298L252.249 55.6456ZM243.902 50.0358L227.219 72.4908L193.868 83.7051H193.825L177.136 106.176L143.812 117.39H143.764L127.726 138.968H128.064L143.991 117.543L177.316 106.329H177.364L194.063 83.8689L227.388 72.6546H227.43L244.124 50.1996L275.984 39.4871V39.2653L243.95 50.0358H243.902ZM231.435 108.965H231.392L214.693 131.441L192.275 138.979H192.947L214.873 131.584H214.92L231.62 109.134L264.944 97.9197H264.992L275.979 83.1293V82.675L264.786 97.756L231.435 108.965ZM227.261 106.16H227.219L210.519 128.615L179.781 138.979H180.453L210.726 128.795H210.768L227.467 106.334L260.792 95.1254H260.84L276 74.7358V74.2815L260.607 94.9458L227.261 106.16ZM248.086 120.211L234.132 138.979H234.471L248.314 120.359L275.995 111.051V110.824L248.134 120.195L248.086 120.211ZM14.5591 30.5337L47.9103 19.3247H47.9526L64.652 -3.15145L97.9768 -14.3605H98.0191L114.719 -36.8524L148.043 -48.0667H148.091L149.524 -49.9947H149.186L147.863 -48.2199L114.539 -37.0056H114.496L97.8181 -14.5295L64.4669 -3.3152H64.4193L47.7304 19.1398L14.4057 30.3541H14.3634L-2.35721 52.8407L-5.00203 53.7281V53.9553L-2.14034 52.9939L14.5591 30.5337ZM6.21202 58.6037L22.9114 36.1487L56.2362 24.9344H56.2785L72.9779 2.47418L106.303 -8.73482H106.35L123.087 -31.2215L156.438 -42.4305H156.48L162.087 -49.9736H161.749L156.258 -42.5784L122.907 -31.3852H122.865L106.165 -8.91442L72.8404 2.29987H72.7981L56.0987 24.7548L22.7739 35.9691H22.7263L5.98985 58.4558L-4.99674 62.1534V62.3805L6.1697 58.6248L6.21202 58.6037ZM35.3738 78.2696H35.4214L52.1261 55.7988L85.4774 44.5845H85.5197L102.219 22.1295L135.544 10.9153H135.591L152.286 -11.5397L185.61 -22.754H185.658L202.352 -45.2143L216.428 -49.9683H215.756L202.172 -45.3991H202.13L185.478 -22.9494L152.153 -11.7352H152.111L135.385 10.7357L102.06 21.9499H102.013L85.3187 44.4049L51.9939 55.6192H51.9516L35.2046 78.1059L1.8798 89.3202H1.83748L-4.97559 98.4849V98.9392L2.04906 89.4839L35.3738 78.2696ZM31.2003 75.4647H31.2479L47.942 53.0098L81.2933 41.7955H81.3356L98.0297 19.3405L131.381 8.12622H131.423L148.123 -14.3288L181.447 -25.543H181.495L198.189 -47.998L203.918 -49.926H203.246L198.009 -48.1618H197.967L181.299 -25.7596L147.975 -14.5506H147.927L131.212 7.93077L97.8657 19.1398H97.8181L81.124 41.5947L47.7728 52.8249H47.7304L31.031 75.2957L-2.29374 86.51H-2.33605L-4.98088 90.0597V90.5087L-2.11918 86.6579L31.2003 75.4647ZM3.59364 -49.9894H2.91657L-2.31489 -48.2252H-2.35721L-5.00203 -44.6755V-44.2212L-2.14034 -48.072L3.59364 -49.9894ZM18.7326 67.0289L35.432 44.5687L68.7568 33.3597H68.8044L85.5197 10.8836L118.844 -0.325428H118.887L135.613 -22.7963L168.937 -34.0105H168.98L180.85 -49.9736H180.511L168.779 -34.1796L135.454 -22.9653H135.406L118.691 -0.494461L85.3663 10.7198H85.324L68.5981 33.1906L35.2733 44.4049H35.2257L18.5104 66.8757L-4.99674 74.7992V75.021L18.6903 67.0606L18.7326 67.0289ZM14.5591 64.2188L31.2585 41.7638L64.5833 30.5495H64.6309L81.325 8.09452L114.719 -3.1356H114.761L131.434 -25.6064L164.759 -36.8207H164.801L174.581 -49.9789H174.248L164.605 -36.9845L131.259 -25.7596H131.212L114.518 -3.29935L81.1663 7.91493H81.124L64.4246 30.3699L31.0998 41.5842H31.0522L14.3369 64.0709L-4.99674 70.5681V70.7952L14.5168 64.2346L14.5591 64.2188ZM10.3855 61.398L27.085 38.9431L60.4097 27.7288H60.4573L77.162 5.27379L110.487 -5.94049H110.534L127.26 -28.4008L160.585 -39.615H160.627L168.324 -49.963H167.985L160.432 -39.7894L127.08 -28.5804H127.038L110.344 -6.10424L77.0192 5.10476H76.9769L60.2352 27.5914L26.9104 38.7899H26.8628L10.1634 61.2607L-4.99674 66.3581V66.5852L10.3432 61.4297L10.3855 61.398ZM6.21202 125.974L22.9114 103.519L56.2362 92.3046H56.2785L72.9991 69.8497L106.324 58.6354H106.371L123.066 36.1804L156.438 24.9503H156.48L173.18 2.49003L206.504 -8.71898H206.547L223.267 -31.2215L256.592 -42.4305H256.64L262.241 -49.9736H261.908L256.412 -42.5784L223.088 -31.3852H223.045L206.346 -8.91442L173.021 2.29987H172.973L156.279 24.7548L122.955 35.9691H122.912L106.213 58.4241L72.888 69.6384H72.8457L56.0775 92.1409L22.7527 103.355H22.7051L5.98985 125.842L-4.99674 129.539V129.767L6.1697 126.011L6.21202 125.974ZM2.04906 123.169L18.7432 100.714L52.0838 89.4998H52.1261L68.8256 67.0448L102.15 55.8305H102.198L118.892 33.3755L152.217 22.1612H152.264L168.959 -0.293736L202.31 -11.508H202.352L219.094 -34.0264L252.419 -45.2407H252.466L255.984 -49.9947H255.645L252.249 -45.4044L218.925 -34.2113H218.877L202.172 -11.7193L168.847 -0.505028H168.8L152.106 21.9552L118.781 33.1642H118.739L102.039 55.6192L68.7145 66.8335H68.6669L51.904 89.3307L18.5792 100.545H18.5316L1.81632 123.016L-4.99674 125.314V125.541L1.99617 123.201L2.04906 123.169ZM14.5697 97.9039L47.9103 86.6896H47.9526L64.652 64.2346L97.9768 53.0203H98.0191L114.719 30.5337L148.043 19.3247H148.091L164.827 -3.15145L198.152 -14.3605H198.194L214.92 -36.8524L248.245 -48.0667H248.293L249.721 -49.9947H249.388L248.065 -48.2199L214.74 -37.0056H214.693L197.999 -14.5295L164.648 -3.3152H164.605L147.906 19.1398L114.581 30.3541H114.539L97.8181 52.8407L64.4669 64.0392H64.4193L47.7304 86.5258L14.4057 97.7401H14.3634L-2.3625 120.211L-5.00732 121.098V121.326L-2.14563 120.359L14.5697 97.9039ZM39.5685 81.0798H39.6161L56.3103 58.6195L89.6615 47.4105H89.7038L106.393 24.9503L139.717 13.736H139.765L156.507 -8.76123L189.832 -19.9491H189.874L206.568 -42.4041L228.975 -49.9894H228.303L206.378 -42.5942H206.33L189.652 -20.1445L156.3 -8.93026H156.258L139.58 13.5406L106.255 24.7548H106.207L89.5134 47.2098L56.1886 58.4241H56.141L39.3834 80.9108L6.05862 92.125H6.0163L-4.9703 106.915V107.354L6.21202 92.2888L39.5685 81.0798ZM14.5591 131.589L31.2585 109.134L64.5833 97.9197H64.6309L81.325 75.4647L114.719 64.2346H114.761L131.46 41.7796L164.785 30.5653H164.827L181.527 8.07868L214.852 -3.1356H214.899L231.62 -25.6064L264.944 -36.8207H264.992L274.773 -49.9789H274.466L264.786 -36.9845L231.435 -25.7596H231.392L214.693 -3.29935L181.368 7.91493H181.32L164.626 30.3699L131.302 41.5842H131.254L114.56 64.0444L81.2086 75.2587H81.1663L64.4669 97.719L31.1421 108.928H31.0945L14.3369 131.441L-4.99674 137.938V138.165L14.5168 131.605L14.5591 131.589ZM43.7368 83.8847H43.7791L60.4785 61.398L93.8033 50.1837H93.8456L110.545 27.7288L143.87 16.5145H143.917L160.612 -5.94049L193.963 -17.1548H194.005L210.704 -39.6098L241.474 -49.9577H240.803L210.567 -39.8052H210.519L193.825 -17.308L160.474 -6.12009H160.432L143.732 16.3507L110.407 27.565H110.365L93.6657 50.0253L60.341 61.2343H60.2934L43.5569 83.7209L10.2321 94.9299H10.1898L-4.9703 115.32V115.806L10.3855 95.099L43.7368 83.8847ZM22.9114 69.8497L39.6056 47.3789L72.9303 36.1646H72.9779L89.6721 13.7096L123.023 2.49531H123.066L139.765 -19.9597L173.09 -31.174H173.137L187.134 -49.9894H186.795L172.952 -31.3694L139.627 -20.1551H139.58L122.865 2.31571L89.5134 13.53H89.471L72.7769 35.9903L39.4257 47.2098H39.3834L22.6787 69.6859L-5.00203 78.9933V79.2204L22.8638 69.8497H22.9114ZM10.3855 128.784L27.085 106.324L60.4097 95.1148H60.4573L77.162 72.6387L110.487 61.4297H110.534L127.229 38.9747L160.553 27.7605H160.596L177.295 5.30548L210.62 -5.9088H210.662L227.441 -28.4008L260.766 -39.615H260.813L268.504 -49.963H268.171L260.607 -39.7894L227.282 -28.5804H227.24L210.519 -6.10953L177.195 5.10476H177.147L160.432 27.5914L127.08 38.7899H127.038L110.344 61.2448L77.0192 72.4591H76.9769L60.2352 94.9458L26.9104 106.16H26.8628L10.1634 128.631L-4.99674 133.728V133.955L10.3432 128.795L10.3855 128.784ZM2.04906 55.7988L18.7432 33.3438L52.0944 22.1295H52.1367L68.8361 -0.325428L102.161 -11.5397H102.209L118.913 -34.0264L152.238 -45.2407H152.286L155.803 -49.9947H155.47L152.063 -45.4097L118.733 -34.2113H118.691L101.992 -11.7193L68.6669 -0.505028H68.6193L51.904 21.9658L18.5792 33.1748H18.5316L1.81632 55.6456L-4.99674 57.9381V58.1653L1.99617 55.8147L2.04906 55.7988ZM10.3855 -5.95634L27.085 -28.4008L60.4097 -39.615H60.4573L68.1696 -49.9894H67.8311L60.2352 -39.7894L26.9104 -28.5804H26.8628L10.1634 -6.10424L-4.99674 -1.00684V-0.784988L10.3432 -5.94049L10.3855 -5.95634ZM18.7326 -0.341278L35.432 -22.7963L68.7568 -34.0105H68.8044L80.6691 -49.9736H80.3358L68.5981 -34.1796L35.2733 -22.9653H35.2257L18.5104 -0.494461L-4.99674 7.42896V7.6561L18.6903 -0.325428L18.7326 -0.341278ZM22.9114 2.46362L39.6056 -19.9914L72.9303 -31.2056H72.9779L86.932 -49.9736H86.5935L72.7769 -31.3694L39.4257 -20.1551H39.3834L22.6787 2.31571L-4.99674 11.6231V11.8502L22.8638 2.47946L22.9114 2.46362ZM14.5591 -3.15145L31.2585 -25.6064L64.5833 -36.8207H64.6309L74.4114 -49.9789H74.0729L64.4246 -36.9845L31.0786 -25.7596H31.031L14.3369 -3.29935L-4.99674 3.20314V3.43027L14.5168 -3.1356L14.5591 -3.15145ZM27.085 5.3002L43.7791 -17.1865L77.1303 -28.4008H77.162L93.2055 -49.9789H92.867L76.9505 -28.5645L43.6257 -17.3502H43.5834L26.8575 5.1206L-4.99674 15.8331V16.0602L27.0374 5.28963L27.085 5.3002ZM16.1142 -49.9894H15.4424L1.85864 -45.4203H1.81632L-4.99674 -36.2449V-35.7959L2.04906 -45.2565L16.1142 -49.9894ZM41.1607 -49.9894H40.4836L10.2057 -39.8052H10.1634L-4.99674 -19.4209V-18.9666L10.3855 -39.6414L41.1607 -49.9894ZM28.6348 -49.9894H27.9683L6.03746 -42.5942H5.99514L-4.99146 -27.8039V-27.3443L6.21202 -42.4463L28.6348 -49.9894ZM31.2109 8.11565H31.2585L47.9526 -14.3763L81.3038 -25.5906H81.3462L98.0403 -48.0456L103.769 -49.9736H103.081L97.8498 -48.2093H97.8022L81.124 -25.7596L47.7728 -14.5453H47.7304L31.031 7.93077L-2.31489 19.1398H-2.35721L-5.00203 22.6895V23.1437L-2.14034 19.293L31.2109 8.11565ZM6.21202 -8.76123L22.9114 -31.2215L56.2362 -42.4305H56.2785L61.8855 -49.9736H61.5523L56.0564 -42.5784L22.7316 -31.3852L22.6787 -31.3694L5.98985 -8.91442L-4.99674 -5.21682V-4.98969L6.1697 -8.7401L6.21202 -8.76123ZM43.7368 16.4986H43.7791L60.4785 -5.95634L93.8033 -17.1706H93.8456L110.545 -39.6256L141.315 -49.9736H140.643L110.386 -39.8052H110.344L93.6446 -17.308L60.3198 -6.09368H60.2722L43.5569 16.3507L10.2057 27.5914H10.1634L-4.99674 47.9863V48.4353L10.3855 27.7446L43.7368 16.4986ZM35.3738 10.8994H35.4214L52.1261 -11.5714L85.4774 -22.7857H85.5197L102.219 -45.2459L116.29 -50H115.618L102.023 -45.4203H101.976L85.2975 -22.9494L51.9727 -11.7352H51.9304L35.2046 10.7357L1.8798 21.9499H1.83748L-4.97559 31.1094V31.5637L2.04906 22.1137L35.3738 10.8994ZM39.5474 13.7096H39.595L56.2944 -8.74538L89.6192 -19.9597H89.6615L106.361 -42.4146L128.784 -49.9577H128.112L106.181 -42.5625H106.133L89.471 -20.1445L56.1463 -8.93026H56.0987L39.3834 13.5406L6.05862 24.7548H6.0163L-4.9703 39.5452V39.9995L6.21202 24.9503L39.5474 13.7096ZM2.04906 -11.5714L18.7326 -34.0264L52.0838 -45.2407H52.1261L55.6438 -49.9947H55.3105L51.904 -45.4097L18.5581 -34.2113H18.5104L1.81632 -11.7193L-4.99674 -9.43208V-9.20494L1.99617 -11.5556L2.04906 -11.5714ZM14.5591 -36.8524L47.9103 -48.0456H47.9526L49.3861 -49.9736H49.0476L47.7304 -48.1987L14.4057 -36.9845H14.3634L-2.35721 -14.5295L-5.00203 -13.6421V-13.4149L-2.14034 -14.3763L14.5591 -36.8524ZM27.085 72.6387L43.7791 50.1837L77.1303 38.9695H77.1726L93.8667 16.4986L127.192 5.28963H127.234L143.933 -17.1706L177.306 -28.4008H177.353L193.391 -49.9789H193.058L177.136 -28.5645L143.812 -17.3502H143.764L127.038 5.1206L93.7133 16.3349H93.671L76.9505 38.8057L43.6257 50.02H43.5834L26.8575 72.4908L-4.99674 83.2033V83.4304L27.0374 72.6546L27.085 72.6387Z" fill="#4E69FE"/>
</svg>
