<svg width="30" height="30" viewBox="0 0 30 30" fill="none" xmlns="http://www.w3.org/2000/svg">
<path d="M30 14.9923C30 6.71642 23.2801 0 15 0C6.71988 0 0 6.71642 0 14.9923C0 22.4807 5.48404 28.6876 12.6674 29.7993V19.3155H8.83625V14.9923H12.6674V11.6881C12.6674 7.93618 14.8919 5.85178 18.3213 5.85178C19.9588 5.85178 21.6581 6.16058 21.6581 6.16058V9.81987H19.7734C17.9042 9.81987 17.3172 10.9933 17.3172 12.1668V14.9768H21.4882L20.8239 19.3001H17.3172V29.7838C24.516 28.6876 30 22.4807 30 14.9923Z" fill="#1877F2"/>
<path d="M20.8393 19.3309L21.5036 15.0077H17.3326V12.1976C17.3326 11.0087 17.9351 9.85072 19.7889 9.85072H21.6735V6.17599C21.6735 6.17599 19.9742 5.86719 18.3367 5.86719C14.9073 5.86719 12.6828 7.95159 12.6828 11.7035V15.0077H8.85168V19.3309H12.6828V29.8147C13.4397 29.9382 14.2276 30 15.0154 30C15.8033 30 16.5911 29.9382 17.3481 29.8147V19.3309H20.8393Z" fill="white"/>
</svg>
