<svg width="40" height="40" viewBox="0 0 40 40" fill="none" xmlns="http://www.w3.org/2000/svg">
<path d="M28.125 14.6875V10.375C28.125 9.82272 27.6773 9.375 27.125 9.375H11.625C11.0727 9.375 10.625 9.82272 10.625 10.375V29.625C10.625 30.1773 11.0727 30.625 11.625 30.625H27.125C27.6773 30.625 28.125 30.1773 28.125 29.625V25.3125" stroke="#4E69FE" stroke-linecap="round"/>
<path fill-rule="evenodd" clip-rule="evenodd" d="M10 10.625C10 9.28103 11.3725 8.3735 12.6092 8.89976L21.3592 12.6232C22.0509 12.9175 22.5 13.5967 22.5 14.3485V32.6846C22.5 33.996 21.1882 34.9023 19.9616 34.4383L11.2116 31.1286C10.4824 30.8528 10 30.1545 10 29.3749V10.625Z" fill="#4E69FE"/>
<path d="M24.375 20H33.75M33.75 20L30.625 16.875M33.75 20L30.625 23.125" stroke="#4E69FE" stroke-linecap="round" stroke-linejoin="round"/>
</svg>
